# xmcd
#
# Track frame offsets: 
#        150
#        16587
#        31278
#        49390
#        65263
#        80741
#        95637
#        108342
#        122726
#        138112
#        153512
#        174591
#
# Disc length: 2567 seconds
#
# Revision: 0
# Processed by: cddbd v1.5.2PL0 Copyright (c) Steve Scherf et al.
# Submitted via: ExactAudioCopy v1.1
#
DISCID=970a050c
DTITLE=Willy Sommers - Boven De Wolken
DYEAR=2017
DGENRE=Pop-Folk
TTITLE0=Geen Probleem
TTITLE1=1000 Keer
TTITLE2=De Vrouw Van M'n Leven
TTITLE3=Zeg Dus Niet Hallo
TTITLE4=Als Je Diep In Mijn Ogen Kijkt
TTITLE5=Boven De Wolken
TTITLE6=Net Als In Een Droom (Met Wim Soutaer)
TTITLE7=Van Levensbelang
TTITLE8=Zondag
TTITLE9=Pak Me Vast
TTITLE10=Spijt Komt Te Laat
TTITLE11=L.A.T.
EXTD=
EXTT0=
EXTT1=
EXTT2=
EXTT3=
EXTT4=
EXTT5=
EXTT6=
EXTT7=
EXTT8=
EXTT9=
EXTT10=
EXTT11=
PLAYORDER=
